<?xml version="1.0" encoding="utf-8"?>
<!-- Generator: Adobe Illustrator 28.0.0, SVG Export Plug-In . SVG Version: 6.00 Build 0)  -->
<svg version="1.1" id="Слой_1" xmlns="http://www.w3.org/2000/svg" xmlns:xlink="http://www.w3.org/1999/xlink" x="0px" y="0px"
	 viewBox="0 0 511 300" style="enable-background:new 0 0 511 300;" xml:space="preserve">
<style type="text/css">
	.st0{fill:#FFFFFF;}
</style>
<rect class="st0" width="511" height="300"/>
<path d="M192,73.9c-2.2,5.3,1.5,13.9,3.9,9.2c1.4-2.5,1.4-6.2,0.1-9.5C194.7,70.2,193.5,70.3,192,73.9z"/>
<path d="M313.1,74.1c-1.4,4-1.4,5.1,0,8.6l1.1,2.8l1.9-2.4c2.1-2.5,2.5-7.1,0.9-10.2C315.5,70.2,314.4,70.5,313.1,74.1z"/>
<path d="M183.6,84.5c-1.9,5,1,12.4,4.8,12.5c1.7,0-0.1-10.1-2.1-12.2C184.5,83,184.2,83,183.6,84.5z"/>
<path d="M322.1,86.1c-2.5,4-2.9,10.9-0.7,10.9c3.5,0,6.1-9.1,3.7-12.9C324.4,83,323.7,83.4,322.1,86.1z"/>
<path d="M201.4,86.5c-1.6,1.3-1.7,1.6-0.4,2.5c2,1.3,6.6,1.3,9.2-0.1c2.1-1.1,2.1-1.2,0.3-2.5C208,84.6,203.9,84.6,201.4,86.5z"/>
<path d="M298.5,86.4c-1.8,1.3-1.8,1.4,0.3,2.5c2.5,1.3,7.1,1.4,9.1,0.2c1.2-0.8,1.2-1.2,0.2-2.5C306.5,84.6,301,84.5,298.5,86.4z"/>
<path d="M194.8,97.2l-2.3,2.3l4.3,0.3c5,0.4,10.6-2.3,8.1-3.9C202.2,94.2,197.1,94.9,194.8,97.2z"/>
<path d="M304.5,96.1c-1.1,1.8,2.7,3.8,7.3,3.9c4.7,0,5.3-1.1,2-3.4C311.2,94.8,305.4,94.5,304.5,96.1z"/>
<path d="M328.7,99.8c-1.9,1.9-3.1,4.5-3.4,7.2c-0.6,4.1-0.5,4.2,1.6,3.1c3.3-1.8,5.3-5.6,4.9-9.6l-0.3-3.7L328.7,99.8z"/>
<path d="M177,101.6c0,2.7,0.8,4.3,3.2,6.7c3.3,3.2,3.3,3.2,3.6,0.8c0.5-3.3-0.4-6.3-2.8-8.9C178.1,97.1,177,97.4,177,101.6z"/>
<path d="M191.2,108.3c-2.8,3-2.8,3.7,0.4,3.7c2.9,0,8.1-2.7,8.8-4.7C201.4,104.9,193.6,105.7,191.2,108.3z"/>
<path d="M310,108.5c2.2,2.4,8.4,4.4,9.7,3.1c0.4-0.3-0.4-1.7-1.7-3.1c-1.7-1.9-3.4-2.5-6.3-2.5h-4L310,108.5z"/>
<path d="M241.7,114.9c-7.1,3.1-12.9,6.1-12.8,6.5c0,0.5,5.9,3.5,13.1,6.7l13.1,5.7l13.7-6c7.5-3.3,13.8-6.1,14-6.2
	c0.2-0.3-23.5-10.9-26.8-12C255.2,109.3,248.7,111.7,241.7,114.9z"/>
<path d="M173.4,116.2c0.7,3.6,3.8,7.4,6.7,8.1c3.1,0.8,2.4-3.7-1.2-7.8C174.9,111.9,172.5,111.8,173.4,116.2z"/>
<path d="M332.2,114.6c-2.4,1.6-5.2,6.4-5.2,8.8c0,2.2,3.7,0.8,6.5-2.6c2.3-2.8,3.4-7.8,1.7-7.8C334.8,113,333.4,113.7,332.2,114.6z"
	/>
<path d="M190.8,119c-3,2.3-4.6,6.5-2.1,5.6c0.8-0.3,1.8-0.6,2.3-0.6c1.2,0,7-5,7-6.1C198,116.3,193.3,117,190.8,119z"/>
<path d="M311,117.9c0,1.1,5.8,6.1,7,6.1c0.5,0,1.5,0.3,2.4,0.6c2.6,1,1.9-1.5-1.3-4.7C316.3,117.2,311,115.8,311,117.9z"/>
<path d="M230.7,133.7c-0.3,4.3-0.9,8.8-1.2,10c-0.7,2-0.4,2.3,2.3,2.3c3,0,3-0.1,2.1-3.2c-0.5-1.8-0.9-6.3-0.9-10
	C233,123.5,231.4,124.2,230.7,133.7z"/>
<path d="M193.5,129c-2.7,1-4.2,2.9-5,6.2c-0.6,2.3-0.4,2.6,1.4,2.1c2.5-0.6,7.1-5.8,7.1-7.9C197,127.8,196.4,127.8,193.5,129z"/>
<path d="M312,129.6c0,0.8,1.3,2.9,2.9,4.5c1.6,1.6,3.7,2.9,4.5,2.9c2.5,0,1.9-2.9-1.3-6.1C314.9,127.7,312,127.1,312,129.6z"/>
<path d="M173.2,132.1c1.6,4.7,9.8,9.1,9.8,5.3c0-2.3-6.4-8.4-8.8-8.4C172.3,129,172.2,129.3,173.2,132.1z"/>
<path d="M237.6,130.6c-1.8,4.7-0.8,5.8,7.7,9.1c4.5,1.8,9,3.3,10,3.3c1.8,0,16.7-5.7,18-6.9c0.6-0.6-1-7.1-1.7-7.1
	c-0.1,0-3.9,1.6-8.3,3.5l-8.1,3.5l-8.2-3.5c-4.5-1.9-8.3-3.5-8.5-3.5C238.4,129,237.9,129.7,237.6,130.6z"/>
<path d="M330.1,131.7c-1.6,1.6-3.2,3.8-3.6,5.1c-0.6,2.1-0.4,2.2,2.2,1.6c3.3-0.8,6.8-4,7.8-7.2C337.4,128,333.8,128.3,330.1,131.7z
	"/>
<path d="M194.6,141.2c-2.5,2.2-4.7,8.8-3,8.8c2.5-0.1,7.4-6.3,7.4-9.2C199,138.4,197.6,138.5,194.6,141.2z"/>
<path d="M310.5,141.7c0.6,2.8,5.1,8.3,6.7,8.3c2,0,0.6-5.4-2.1-8.1C311.3,138.2,309.6,138.1,310.5,141.7z"/>
<path d="M174.7,145.7c1.5,4.2,6.8,7.5,10.4,6.6c1.7-0.5,1.7-0.7,0.4-2.6C182.2,145,173.2,141.7,174.7,145.7z"/>
<path d="M328.5,145.5c-3,1.6-5.5,4.2-5.5,5.7c0,0.4,1.4,0.8,3.1,0.8c3,0,8.9-4.5,8.9-6.9C335,143.5,332,143.8,328.5,145.5z"/>
<path d="M198,153.2c-2.1,3.5-2.4,5.5-1.2,7.6c1.1,1.6,3.5-0.9,5.2-5.2C204.2,149.8,201.2,148,198,153.2z"/>
<path d="M307,153.1c0,3.9,3.9,9.7,5.1,7.7c1.5-2.2,1-5.4-1.2-8.2C308.2,149.2,307,149.3,307,153.1z"/>
<path d="M179.6,160.2c2.6,4.6,8.4,7,11.9,5.1c2.8-1.6-3.6-6.3-8.6-6.3C180,159,179.1,159.3,179.6,160.2z"/>
<path d="M205.8,160.7c-2.6,2.8-3.2,7.4-1.4,9.8c1.4,1.9,1.5,1.9,3.1-1.9c1.2-2.8,1.4-4.8,0.8-6.9
	C207.5,158.9,207.5,158.8,205.8,160.7z"/>
<path d="M320.4,160.9c-1.8,1.1-3.5,2.4-3.8,2.9c-0.8,1.3,4,2.5,6.7,1.6c2.4-0.7,6.7-4.3,6.7-5.6C330,158.3,323.5,159,320.4,160.9z"
	/>
<path d="M301,163.5c0,3.5,1.8,8.5,3.1,8.5c2.2,0,2.5-6.7,0.3-9.8C302.2,159,301,159.5,301,163.5z"/>
<path d="M187.5,172.9c-0.8,1.5,4.5,5.1,7.4,5.1c1.5,0,3.6-0.6,4.6-1.4c1.8-1.3,1.7-1.4-1.3-3C194.8,171.9,188.5,171.4,187.5,172.9z"
	/>
<path d="M310.6,173.7c-2.8,1.5-2.9,1.6-1.1,2.9c1,0.8,3.1,1.4,4.6,1.4c2.9,0,8.2-3.6,7.4-5.1C320.5,171.5,313.8,171.9,310.6,173.7z"
	/>
<path d="M226.2,175.5c0.7,0.7,56.9,0.8,57.6,0.1c0.3-0.3-12.7-0.6-28.8-0.6S225.9,175.2,226.2,175.5z"/>
<path d="M89.1,235.3c0,0.5-0.4,0.8-0.8,0.8H77.9c-0.5,0-0.9-0.4-0.9-0.9l0,0c0-0.3,0.2-0.6,0.5-0.8c0.4-0.2,0.8-0.3,1.2-0.4
	c0.2-0.1,0.4-0.1,0.6-0.2c1-0.2,1.7-1.1,1.7-2.1v-25.1c0-1-0.7-1.8-1.6-2c-0.1,0-0.2-0.1-0.4-0.1c-0.5-0.2-1-0.3-1.4-0.5
	c-0.3-0.1-0.5-0.4-0.5-0.8l0,0c0-0.5,0.4-0.8,0.8-0.8h30c0.5,0,0.9,0.4,0.9,0.9l0,0c0,0.3-0.2,0.6-0.5,0.8c-0.5,0.2-0.9,0.4-1.4,0.5
	c-0.1,0-0.3,0.1-0.4,0.1c-0.9,0.2-1.6,1-1.6,2v25c0,1,0.8,1.8,1.7,2.1c0.6,0.2,1.1,0.4,1.7,0.6c0.3,0.1,0.5,0.4,0.5,0.8l0,0
	c0,0.5-0.4,0.8-0.8,0.8H97.4c-0.5,0-0.9-0.4-0.9-0.9l0,0c0-0.3,0.2-0.6,0.4-0.7c0.4-0.2,0.9-0.4,1.6-0.6c0.9-0.3,1.6-1.1,1.6-2
	v-24.9c0-1.1-0.9-2-2-2H87.5c-1.1,0-2,0.9-2,2V232c0,0.9,0.7,1.8,1.6,2c0.5,0.2,1,0.3,1.5,0.5C88.9,234.7,89.1,235,89.1,235.3
	L89.1,235.3z M122.9,231.8c0,1,0.8,1.9,1.8,2.1c0.2,0.1,0.5,0.1,0.7,0.2c0.6,0.1,1.1,0.3,1.6,0.5c0.3,0.1,0.5,0.4,0.5,0.8l0,0
	c0,0.5-0.4,0.8-0.8,0.8h-11.5c-0.5,0-0.9-0.4-0.9-0.9l0,0c0-0.3,0.2-0.6,0.5-0.8c0.5-0.2,1-0.4,1.5-0.5c0.1,0,0.2-0.1,0.4-0.1
	c0.9-0.2,1.6-1,1.6-2v-25.1c0-1-0.7-1.8-1.6-2c-0.1,0-0.3-0.1-0.4-0.1c-0.5-0.2-0.9-0.3-1.4-0.5c-0.3-0.1-0.5-0.4-0.5-0.8l0,0
	c0-0.5,0.4-0.8,0.8-0.8h3.5c1.3,0,2.7-0.1,4.2-0.2c1.5-0.1,2.9-0.2,4.3-0.2c1.6,0,3.1,0.2,4.6,0.5c1.5,0.3,2.8,0.9,4,1.7
	c1.2,0.8,2.1,1.9,2.8,3.2c0.7,1.3,1.1,3,1.1,4.9c0,1.9-0.4,3.5-1.1,4.8c-0.7,1.3-1.7,2.4-3,3.3c-1.2,0.9-2.6,1.5-4.2,1.9
	c-1.6,0.4-3.2,0.6-4.8,0.6c-0.2,0-0.4,0-0.8,0c-0.3,0-0.7,0-1.1,0c-0.4,0-0.8-0.1-1.1-0.1l0,0c-0.4,0-0.8,0.3-0.8,0.7V231.8z
	 M126.1,204.7c-0.8,0-1.4,0-1.9,0l0,0c-0.8,0.1-1.4,0.8-1.4,1.6v13.5c0,0.4,0.3,0.8,0.7,0.8l0,0c0.3,0,0.6,0,1,0c0.4,0,0.7,0,1,0
	s0.6,0,0.8,0c1.1,0,2.2-0.1,3.2-0.4c1-0.3,1.9-0.8,2.6-1.5c0.8-0.7,1.4-1.5,1.8-2.5s0.7-2.3,0.7-3.7c0-2.6-0.8-4.6-2.3-5.9
	C130.8,205.3,128.8,204.7,126.1,204.7z M147,219.4c0-2.5,0.3-4.8,1-6.9c0.7-2.1,1.7-4,3-5.5c1.3-1.6,2.9-2.8,4.8-3.6s4-1.3,6.4-1.3
	c2.4,0,4.5,0.4,6.4,1.3s3.5,2.1,4.8,3.6c1.3,1.5,2.3,3.4,3,5.5c0.7,2.1,1.1,4.4,1.1,6.9c0,2.5-0.4,4.8-1.1,7c-0.7,2.1-1.7,4-3,5.5
	c-1.3,1.5-2.9,2.7-4.8,3.6c-1.9,0.9-4,1.3-6.4,1.3c-2.4,0-4.5-0.4-6.4-1.3c-1.9-0.9-3.5-2.1-4.8-3.6c-1.3-1.6-2.3-3.4-3-5.5
	C147.3,224.2,147,221.9,147,219.4z M152.1,219.4c0,2,0.2,4,0.6,5.8c0.4,1.8,1.1,3.4,2,4.7s2,2.4,3.3,3.2c1.3,0.8,2.9,1.2,4.7,1.2
	c1.6,0,3.1-0.4,4.3-1.2c1.2-0.8,2.2-1.9,3-3.2c0.8-1.3,1.4-2.9,1.8-4.7c0.4-1.8,0.6-3.8,0.6-5.8c0-2-0.2-4-0.6-5.8
	c-0.4-1.8-1.1-3.4-1.9-4.8s-2-2.4-3.3-3.2c-1.3-0.8-2.9-1.2-4.7-1.2c-1.8,0-3.3,0.4-4.5,1.2c-1.2,0.8-2.2,1.8-3,3.2
	c-0.8,1.3-1.3,2.9-1.7,4.8C152.3,215.4,152.1,217.3,152.1,219.4z M196.2,203.4c0-0.5,0.4-0.9,0.9-0.9h9.1c0.5,0,0.9,0.4,0.9,0.9l0,0
	c0,0.3-0.2,0.6-0.5,0.8c-0.2,0.1-0.5,0.2-0.8,0.3c-0.3,0.1-0.6,0.2-1,0.3c-0.5,0.2-0.9,0.6-0.9,1.2l0,0c0,0.8,0.7,1.3,1.5,1.3
	c0.2,0,0.4,0,0.6,0c0.8,0,1.5,0,2,0c1.5,0,3,0.3,4.3,0.8c1.3,0.5,2.5,1.3,3.5,2.3c1,1,1.8,2.2,2.3,3.6c0.5,1.4,0.8,3.1,0.8,4.9
	c0,2-0.3,3.8-1,5.3s-1.6,2.8-2.7,3.8c-1.1,1-2.3,1.7-3.7,2.3c-1.4,0.5-2.8,0.7-4.2,0.7c-0.2,0-0.4,0-0.7,0c-0.3,0-0.6,0-0.9,0
	c-0.3,0-0.6-0.1-0.9-0.1l0,0c-0.4-0.1-0.7,0.2-0.7,0.6v1.2c0,0.6,0.4,1.2,1,1.4c0.2,0.1,0.5,0.2,0.7,0.2c0.3,0.1,0.7,0.2,1,0.4
	c0.3,0.1,0.5,0.4,0.5,0.7l0,0c0,0.5-0.4,0.9-0.9,0.9h-9c-0.5,0-0.9-0.4-0.9-0.9l0,0c0-0.3,0.2-0.6,0.5-0.8c0.3-0.2,0.7-0.3,1.1-0.4
	c0.2-0.1,0.4-0.1,0.7-0.2c0.7-0.2,1.2-0.8,1.2-1.5l0,0c0-0.9-0.8-1.6-1.7-1.5c-0.1,0-0.2,0-0.3,0c-0.7,0-1.4,0-2,0
	c-1.3,0-2.6-0.2-3.9-0.6c-1.3-0.4-2.4-1.1-3.5-2.1c-1-0.9-1.9-2.1-2.5-3.6s-1-3.2-1-5.3c0-1.9,0.3-3.6,1-5.1
	c0.6-1.5,1.5-2.8,2.6-3.8c1.1-1,2.3-1.8,3.7-2.4c1.4-0.5,2.9-0.8,4.5-0.8c0.4,0,0.9,0,1.5,0c0.1,0,0.1,0,0.2,0
	c0.7,0,1.4-0.5,1.4-1.2l0,0c0-0.5-0.4-1-0.9-1.2c-0.8-0.2-1.5-0.4-2-0.7C196.3,204.1,196.2,203.8,196.2,203.4L196.2,203.4z
	 M206.4,209.5c-0.4,0-0.9,0-1.3,0l0,0c-0.8,0.1-1.3,0.8-1.3,1.6v16.3c0,0.7,0.5,1.3,1.2,1.4l0,0c0.5,0,0.8,0,1.1,0
	c1.1,0,2.1-0.2,3-0.6c1-0.4,1.9-1,2.6-1.7c0.8-0.8,1.4-1.8,1.8-3.1s0.7-2.7,0.7-4.5c0-2.9-0.7-5.2-2.1-6.9
	C210.8,210.3,208.9,209.5,206.4,209.5z M197.3,228.7c0.4,0,0.7,0,1.1,0l0,0c0.8-0.1,1.2-0.8,1.2-1.5v-15.8c0-1-0.8-1.9-1.8-1.9
	c-0.2,0-0.4,0-0.5,0c-1,0-2,0.2-3,0.6c-1,0.4-1.8,1-2.6,1.8c-0.8,0.8-1.4,1.8-1.9,3.1c-0.4,1.2-0.7,2.7-0.7,4.4c0,1.5,0.2,2.8,0.6,4
	c0.4,1.2,1,2.1,1.7,2.9c0.7,0.8,1.6,1.4,2.6,1.8S196.2,228.7,197.3,228.7z M237,235.3c0,0.5-0.4,0.9-0.9,0.9h-10.4
	c-0.5,0-0.8-0.4-0.8-0.8l0,0c0-0.3,0.2-0.6,0.5-0.8c0.6-0.2,1.2-0.4,1.7-0.6c1-0.3,1.7-1.1,1.7-2.1v-25.2c0-0.9-0.6-1.7-1.5-2
	c-0.2,0-0.3-0.1-0.5-0.1c-0.5-0.1-1-0.3-1.4-0.5c-0.3-0.1-0.5-0.4-0.5-0.8l0,0c0-0.5,0.4-0.8,0.8-0.8h10.5c0.5,0,0.9,0.4,0.9,0.9
	l0,0c0,0.3-0.2,0.6-0.5,0.8c-0.4,0.2-0.8,0.3-1.2,0.4c-0.1,0-0.3,0.1-0.4,0.1c-0.9,0.3-1.6,1.1-1.6,2v19.2c0,0,0,0.1,0,0.1l0,0
	c-0.1,0.8,0.9,1.2,1.3,0.5l0.4-0.7l13.9-19.2c0.1-0.2,0.2-0.4,0.2-0.6l0,0c0-0.5-0.3-0.9-0.8-1c-0.4-0.1-0.9-0.2-1.3-0.3
	c-0.4-0.2-0.9-0.3-1.3-0.5c-0.3-0.1-0.5-0.4-0.5-0.8l0,0c0-0.5,0.4-0.8,0.8-0.8h10.5c0.5,0,0.8,0.4,0.8,0.8l0,0
	c0,0.3-0.2,0.6-0.5,0.8c-0.4,0.2-0.9,0.3-1.4,0.5c-0.2,0-0.3,0.1-0.5,0.1c-0.9,0.2-1.5,1-1.5,2v25.2c0,1,0.7,1.8,1.7,2
	c0.6,0.2,1.2,0.4,1.8,0.6c0.3,0.1,0.5,0.4,0.5,0.8l0,0c0,0.5-0.4,0.8-0.8,0.8h-10.5c-0.5,0-0.8-0.4-0.8-0.8l0,0
	c0-0.3,0.2-0.6,0.5-0.8c0.4-0.1,0.8-0.3,1.2-0.4c0.1,0,0.2-0.1,0.3-0.1c0.9-0.3,1.6-1.1,1.6-2.1v-19.1l0,0c0.1-0.8-1-1.2-1.4-0.5
	l-0.3,0.5l-14.1,19.5c-0.1,0.2-0.2,0.3-0.2,0.5l0,0c0,0.4,0.3,0.8,0.7,0.9c0.5,0.1,0.9,0.2,1.3,0.3c0.5,0.1,0.9,0.3,1.3,0.5
	C236.8,234.7,237,235,237,235.3L237,235.3z M280.1,203.4c0-0.5,0.4-0.9,0.9-0.9h8.9c0.5,0,0.8,0.4,0.8,0.8l0,0
	c0,0.3-0.2,0.6-0.5,0.8c-0.5,0.2-0.9,0.4-1.4,0.5c-0.4,0.1-0.7,0.2-1.1,0.3c-0.5,0.1-0.9,0.4-1.2,0.8l-8.3,11
	c-0.5,0.7-0.5,1.7,0,2.4c0.6,0.7,1.2,1.5,1.8,2.3c1.1,1.3,2.1,2.7,3.3,4.1c1.2,1.4,2.3,2.8,3.5,4.2c1.1,1.3,2.2,2.6,3.3,3.8
	c0.2,0.2,0.4,0.3,0.6,0.5l1.6,0.8c0.3,0.1,0.4,0.4,0.4,0.7l0,0c0,0.4-0.3,0.7-0.7,0.7h-4.6c-0.4,0-0.8-0.1-1.2-0.4l-0.9-0.6
	c-0.1-0.1-0.3-0.2-0.4-0.3c-1.8-2.2-3.7-4.5-5.5-7c-1.7-2.3-3.4-4.7-5-7.1c-0.3-0.4-0.8-0.7-1.3-0.7l0,0c-0.8,0-1.5,0.7-1.5,1.5
	v10.3c0,1,0.7,1.8,1.6,2.1c0.6,0.2,1.1,0.3,1.5,0.5c0.3,0.1,0.5,0.4,0.5,0.8l0,0c0,0.5-0.4,0.9-0.9,0.9H264c-0.5,0-0.8-0.4-0.8-0.8
	l0,0c0-0.3,0.2-0.6,0.5-0.8c0.6-0.2,1.2-0.4,1.8-0.6c0.9-0.3,1.6-1.1,1.6-2v-25.1c0-1-0.7-1.8-1.7-2.1c-0.6-0.2-1.2-0.4-1.7-0.6
	c-0.3-0.1-0.5-0.4-0.5-0.8l0,0c0-0.5,0.4-0.9,0.9-0.9h10.4c0.5,0,0.8,0.4,0.8,0.8l0,0c0,0.3-0.2,0.6-0.5,0.8
	c-0.4,0.2-0.8,0.3-1.2,0.5c-0.1,0-0.3,0.1-0.4,0.1c-0.9,0.3-1.5,1.1-1.5,2v9.4c0,1.2,1.1,2,2.2,1.8l0,0c0.4-0.1,0.8-0.4,1.1-0.7
	l7.5-10.5c0.5-0.7,0.1-1.8-0.7-2.1l0,0c-0.4-0.1-0.8-0.3-1.2-0.4C280.3,204.1,280.1,203.8,280.1,203.4L280.1,203.4z M320.2,228
	c0.1-0.3,0.4-0.5,0.8-0.5l0,0c0.4,0,0.7,0.3,0.8,0.7c0.1,0.8,0.2,1.7,0.3,2.7c0.1,1,0.1,2,0.1,3c0,0.6-0.3,1.1-0.8,1.4
	c-0.3,0.2-0.6,0.3-1,0.5c-0.7,0.2-1.4,0.4-2.2,0.6c-0.7,0.2-1.5,0.3-2.3,0.3c-0.8,0.1-1.5,0.1-2.2,0.1c-2.7,0-5.1-0.3-7.2-1
	c-2.1-0.7-3.9-1.8-5.4-3.2c-1.4-1.4-2.6-3.2-3.4-5.4c-0.8-2.2-1.2-4.8-1.2-7.8c0-3.1,0.4-5.8,1.3-8c0.9-2.2,2-4,3.5-5.4
	c1.5-1.4,3.2-2.4,5.1-3.1s4-1,6.1-1c2.1,0,3.9,0.1,5.3,0.4c1,0.2,1.9,0.4,2.7,0.7c0.7,0.3,1.1,1,1.1,1.7c0,0.2,0,0.4,0,0.6
	c0,0.7-0.1,1.4-0.1,2.2c-0.1,0.8-0.1,1.5-0.2,2.3c-0.1,0.5-0.1,0.9-0.2,1.3c-0.1,0.4-0.4,0.7-0.8,0.7l0,0c-0.3,0-0.6-0.2-0.8-0.5
	l-2-5.7c-0.2-0.5-0.5-0.9-1-1c-0.3-0.1-0.6-0.1-1.1-0.1c-0.8-0.1-1.6-0.1-2.4-0.1c-1.6,0-3.1,0.3-4.6,0.9c-1.4,0.6-2.7,1.5-3.7,2.7
	c-1.1,1.2-1.9,2.8-2.5,4.7c-0.6,1.9-1,4-1,6.6c0,2.3,0.3,4.3,0.9,6.2c0.6,1.8,1.4,3.4,2.5,4.7c1.1,1.3,2.4,2.3,4,3
	c1.6,0.7,3.3,1,5.3,1c1.1,0,1.9-0.1,2.6-0.2c0.5-0.1,0.9-0.2,1.1-0.4c0.2-0.1,0.3-0.3,0.4-0.6L320.2,228z M368.1,235.3
	c0,0.5-0.4,0.9-0.9,0.9H357c-0.5,0-0.8-0.4-0.8-0.8l0,0c0-0.3,0.2-0.6,0.5-0.8c0.5-0.2,0.9-0.3,1.4-0.4c0.1,0,0.3-0.1,0.4-0.1
	c0.9-0.3,1.5-1.1,1.5-2v-20l0.2-5.4c0-0.1-0.1-0.2-0.2-0.2l0,0c-0.1,0-0.2,0.1-0.2,0.2l-1.5,5l-9.6,24.1c-0.1,0.3-0.5,0.6-0.8,0.6
	l0,0c-0.4,0-0.7-0.2-0.9-0.6l-9.1-24l-1.7-5.4c0-0.1-0.1-0.2-0.2-0.2l0,0c-0.1,0-0.2,0.1-0.2,0.2l0,5.8v20c0,0.9,0.7,1.8,1.6,2
	c0.1,0,0.2,0.1,0.3,0.1c0.4,0.1,0.9,0.3,1.3,0.5c0.3,0.1,0.5,0.4,0.5,0.8l0,0c0,0.5-0.4,0.8-0.8,0.8h-8.4c-0.5,0-0.8-0.4-0.8-0.8
	l0,0c0-0.3,0.2-0.6,0.5-0.8c0.4-0.2,0.9-0.3,1.4-0.5c0.1,0,0.3-0.1,0.4-0.1c0.9-0.3,1.6-1.1,1.6-2.1v-25.1c0-1-0.7-1.8-1.6-2
	c-0.1,0-0.3-0.1-0.4-0.1c-0.5-0.2-0.9-0.3-1.4-0.5c-0.3-0.1-0.5-0.4-0.5-0.8l0,0c0-0.5,0.4-0.8,0.8-0.8h7.6c0.8,0,1.6,0.5,1.9,1.3
	l7.9,20.6l1.6,4.9c0,0,0,0,0,0l0,0c0,0,0,0,0,0l1.6-5l8.1-20.6c0.3-0.8,1-1.3,1.9-1.3h6.5c0.5,0,0.8,0.4,0.8,0.8l0,0
	c0,0.3-0.2,0.6-0.5,0.8c-0.4,0.2-0.8,0.3-1.3,0.5c-0.1,0-0.2,0.1-0.3,0.1c-0.9,0.3-1.6,1.1-1.6,2V232c0,1,0.7,1.8,1.6,2.1
	c0.1,0,0.2,0.1,0.3,0.1c0.4,0.1,0.8,0.2,1.2,0.4C367.9,234.7,368.1,235,368.1,235.3L368.1,235.3z M394.5,202.6c1.1,0,2,0.9,2,2
	c0,0.6-0.1,1.2-0.1,1.8c-0.1,1.1-0.1,2.1-0.3,3.2c0,0.4-0.4,0.7-0.8,0.7l0,0c-0.3,0-0.6-0.2-0.7-0.5l-1.3-3.5
	c-0.3-0.8-1-1.3-1.9-1.3h-7.1c-1.1,0-2,0.9-2,2v8.7c0,1.1,0.9,2,2,2h4.6c0.7,0,1.4-0.4,1.8-1.1l1.1-2.1c0.1-0.3,0.4-0.4,0.7-0.4l0,0
	c0.4,0,0.8,0.3,0.8,0.7c0.1,2.7,0.1,5.4,0,8.2c0,0.4-0.4,0.7-0.8,0.7l0,0c-0.3,0-0.6-0.2-0.7-0.4l-1.1-2.1c-0.3-0.7-1-1.1-1.8-1.1
	h-4.6c-1.1,0-2,0.9-2,2v9.4c0,1.1,0.9,2,2,2h7.7c0.8,0,1.5-0.5,1.9-1.2l1.6-4c0.1-0.3,0.4-0.5,0.7-0.5l0,0c0.4,0,0.7,0.3,0.8,0.7
	c0.2,1.1,0.3,2.3,0.4,3.4c0.1,0.8,0.1,1.5,0.1,2.3c0,1.1-0.9,1.9-1.9,1.9h-20.9c-0.5,0-0.8-0.4-0.8-0.8l0,0c0-0.3,0.2-0.6,0.5-0.8
	c0.6-0.2,1.1-0.4,1.8-0.6c0.9-0.2,1.7-1.1,1.7-2v-25.1c0-1-0.7-1.8-1.6-2c-0.1,0-0.2-0.1-0.4-0.1c-0.5-0.2-1-0.3-1.4-0.5
	c-0.3-0.1-0.5-0.4-0.5-0.8l0,0c0-0.5,0.4-0.8,0.8-0.8H394.5z M433.3,233.7c1.1,0,2,0.9,1.9,2c0,0.1,0,0.2,0,0.3
	c-0.1,0.8-0.1,1.7-0.2,2.6s-0.2,1.8-0.3,2.6c-0.1,0.6-0.1,1.1-0.2,1.6c-0.1,0.4-0.4,0.7-0.8,0.7l0,0c-0.3,0-0.6-0.2-0.7-0.6
	l-1.5-5.2c-0.2-0.9-1-1.5-1.9-1.5H409c-0.9,0-1.7,0.6-1.9,1.5l-1.4,5.2c-0.1,0.3-0.4,0.6-0.8,0.6l0,0c-0.4,0-0.7-0.2-0.7-0.6
	c-0.1-0.5-0.2-1-0.3-1.6c-0.1-0.9-0.2-1.8-0.3-2.7c-0.1-0.9-0.1-1.8-0.2-2.6c0-0.1,0-0.2,0-0.3c-0.1-1.1,0.8-2,1.9-2h0.9
	c0.7,0,1.3-0.4,1.7-1c0.6-1.2,1.2-2.6,1.8-4.2c0.7-2.1,1.4-4.4,1.9-6.9c0.5-2.5,1-5.2,1.3-8c0.3-2.2,0.4-4.4,0.5-6.6
	c0-1-0.7-1.8-1.6-2c-0.3-0.1-0.6-0.1-0.9-0.2c-0.6-0.2-1.3-0.4-1.9-0.6c-0.3-0.1-0.5-0.4-0.5-0.8l0,0c0-0.5,0.4-0.8,0.8-0.8H433
	c0.5,0,0.8,0.4,0.8,0.8l0,0c0,0.3-0.2,0.6-0.5,0.8c-0.4,0.2-0.8,0.3-1.3,0.5c-0.2,0.1-0.4,0.1-0.6,0.2c-0.9,0.2-1.6,1.1-1.6,2v24.9
	c0,1.1,0.9,2,2,2H433.3z M423.2,233.7c1.1,0,2-0.9,2-2v-24.6c0-1.1-0.9-2-2-2h-5.4c-1.1,0-1.9,0.8-2,1.9c-0.2,3.2-0.5,6.1-0.9,8.7
	c-0.4,3.1-0.9,5.8-1.5,8.2c-0.5,2.3-1.1,4.3-1.7,6c-0.1,0.3-0.2,0.7-0.4,1c-0.5,1.4,0.5,2.9,2,2.9H423.2z"/>
</svg>
